<?xml version="1.0" encoding="UTF-8" standalone="no"?>
<!DOCTYPE svg PUBLIC "-//W3C//DTD SVG 20010904//EN"
              "http://www.w3.org/TR/2001/REC-SVG-20010904/DTD/svg10.dtd">

<svg xmlns="http://www.w3.org/2000/svg"
     width="26.6667in" height="15in"
     viewBox="0 0 1920 1080">
  <path id="Auswahl"
        fill="none" stroke="black" stroke-width="1"
        d="M 511.00,42.65
           C 527.43,39.41 530.71,60.44 518.00,65.26
             505.06,70.16 495.45,49.34 511.00,42.65 Z
           M 555.00,42.65
           C 571.03,39.49 574.94,60.36 562.00,65.26
             549.06,70.16 539.45,49.34 555.00,42.65 Z
           M 1607.00,213.00
           C 1580.26,223.70 1550.11,231.86 1523.00,217.10
             1480.69,194.08 1476.24,126.13 1512.00,96.46
             1528.73,82.59 1549.68,77.34 1571.00,81.08
             1575.58,81.89 1579.70,83.08 1584.00,84.86
             1585.91,85.65 1590.00,87.77 1591.91,87.65
             1594.60,87.49 1595.49,85.19 1597.51,83.99
             1599.61,82.74 1602.62,83.01 1605.00,83.00
             1605.00,83.00 1606.00,100.00 1606.00,100.00
             1606.00,100.00 1606.00,131.00 1606.00,131.00
             1604.00,130.99 1600.34,131.26 1598.72,130.01
             1597.11,128.75 1596.30,124.96 1595.65,123.00
             1594.36,119.16 1592.11,113.54 1590.21,110.00
             1583.76,97.99 1572.98,89.17 1559.00,89.00
             1534.24,88.71 1520.11,104.93 1514.65,128.00
             1507.56,157.98 1512.97,203.11 1547.00,214.25
             1552.70,216.12 1556.14,216.06 1562.00,216.00
             1568.29,215.92 1579.38,213.63 1583.69,208.79
             1586.48,205.64 1585.80,202.81 1586.17,199.00
             1586.86,191.93 1588.51,177.93 1583.57,172.21
             1579.36,167.34 1569.15,166.50 1563.00,166.00
             1563.00,166.00 1563.00,159.00 1563.00,159.00
             1563.00,159.00 1624.00,159.00 1624.00,159.00
             1624.00,159.00 1624.00,166.00 1624.00,166.00
             1618.97,166.92 1613.07,167.26 1609.39,171.22
             1605.82,175.07 1606.01,179.15 1606.00,184.00
             1605.99,191.86 1605.28,205.92 1607.00,213.00 Z
           M 412.00,154.00
           C 412.00,154.00 440.63,192.00 440.63,192.00
             446.98,200.55 457.59,215.56 470.00,213.66
             482.52,211.74 486.57,199.08 490.60,189.00
             490.60,189.00 519.58,115.00 519.58,115.00
             519.58,115.00 529.95,88.00 529.95,88.00
             531.55,83.83 533.30,79.80 538.78,81.30
             542.05,82.19 543.26,87.14 544.32,90.00
             544.32,90.00 553.20,113.00 553.20,113.00
             553.20,113.00 579.80,182.00 579.80,182.00
             583.07,190.32 587.08,204.63 594.09,210.06
             603.31,217.21 620.80,215.60 626.91,205.00
             629.32,200.82 629.99,189.99 630.00,185.00
             630.00,185.00 630.00,130.00 630.00,130.00
             630.00,121.22 631.08,109.78 626.47,102.04
             622.06,94.63 612.97,91.61 605.00,90.00
             605.00,90.00 605.00,83.00 605.00,83.00
             605.00,83.00 637.00,83.00 637.00,83.00
             637.00,83.00 644.54,83.99 644.54,83.99
             644.54,83.99 651.37,92.00 651.37,92.00
             651.37,92.00 663.15,108.00 663.15,108.00
             663.15,108.00 722.00,188.00 722.00,188.00
             722.00,188.00 722.00,127.00 722.00,127.00
             722.00,119.12 722.91,105.60 718.30,99.04
             713.98,92.90 704.92,91.30 698.00,90.00
             698.00,90.00 698.00,83.00 698.00,83.00
             698.00,83.00 754.00,83.00 754.00,83.00
             754.00,83.00 754.00,90.00 754.00,90.00
             746.68,91.38 738.18,92.56 734.57,100.00
             730.92,107.54 732.00,129.78 732.00,139.00
             732.00,139.00 732.00,223.00 732.00,223.00
             732.00,223.00 723.17,221.98 723.17,221.98
             723.17,221.98 715.58,213.00 715.58,213.00
             715.58,213.00 702.15,195.00 702.15,195.00
             702.15,195.00 639.00,110.00 639.00,110.00
             639.00,110.00 639.00,182.00 639.00,182.00
             639.07,188.01 640.31,201.14 643.70,205.96
             647.94,211.99 657.16,213.62 664.00,215.00
             664.00,215.00 664.00,222.00 664.00,222.00
             664.00,222.00 550.00,222.00 550.00,222.00
             550.00,222.00 550.00,215.00 550.00,215.00
             554.08,214.67 563.82,213.63 565.94,209.78
             567.72,206.53 564.50,200.31 563.34,197.00
             561.84,192.72 556.95,177.04 553.73,175.02
             551.76,173.79 548.28,174.00 546.00,174.00
             546.00,174.00 515.00,174.00 515.00,174.00
             512.28,174.01 508.79,173.66 506.65,175.60
             504.88,177.19 503.77,180.76 503.00,183.00
             501.13,188.48 495.24,202.84 498.02,207.90
             501.05,213.39 511.33,214.54 517.00,215.00
             517.00,215.00 517.00,222.00 517.00,222.00
             517.00,222.00 443.00,222.00 443.00,222.00
             443.00,222.00 436.33,221.43 436.33,221.43
             436.33,221.43 430.95,215.00 430.95,215.00
             430.95,215.00 422.33,202.00 422.33,202.00
             422.33,202.00 401.37,173.00 401.37,173.00
             401.37,173.00 390.96,161.02 390.96,161.02
             390.96,161.02 377.00,160.00 377.00,160.00
             377.00,160.00 377.00,198.00 377.00,198.00
             377.05,202.10 377.38,207.49 380.43,210.58
             383.79,214.00 392.33,214.79 397.00,215.00
             397.00,215.00 397.00,222.00 397.00,222.00
             397.00,222.00 338.00,222.00 338.00,222.00
             338.00,222.00 338.00,215.00 338.00,215.00
             343.76,214.53 351.38,214.30 354.72,208.90
             358.12,203.40 357.00,186.98 357.00,180.00
             357.00,180.00 357.00,110.00 357.00,110.00
             356.99,105.76 357.02,99.65 354.42,96.11
             351.07,91.57 343.27,90.71 338.00,90.00
             338.00,90.00 338.00,83.00 338.00,83.00
             338.00,83.00 392.00,83.00 392.00,83.00
             404.88,83.00 418.35,82.44 430.00,89.04
             447.42,98.91 450.77,122.25 439.37,138.00
             433.70,145.82 421.28,151.83 412.00,154.00 Z
           M 61.00,83.00
           C 61.00,83.00 118.00,83.00 118.00,83.00
             118.00,83.00 118.00,90.00 118.00,90.00
             114.00,90.18 103.20,90.86 101.69,95.22
             100.94,97.38 102.30,100.90 103.00,103.00
             103.00,103.00 110.05,122.00 110.05,122.00
             110.05,122.00 137.00,194.00 137.00,194.00
             137.00,194.00 146.80,168.00 146.80,168.00
             146.80,168.00 163.42,125.00 163.42,125.00
             165.45,119.62 172.19,103.06 170.25,98.09
             167.80,91.83 155.86,90.48 150.00,90.00
             150.00,90.00 150.00,83.00 150.00,83.00
             150.00,83.00 202.00,83.00 202.00,83.00
             202.00,83.00 202.00,90.00 202.00,90.00
             184.68,92.68 181.95,103.59 176.01,118.00
             176.01,118.00 147.60,190.00 147.60,190.00
             147.60,190.00 137.20,217.00 137.20,217.00
             135.67,220.87 135.04,224.89 130.00,224.89
             124.70,224.89 123.83,220.09 122.32,216.00
             122.32,216.00 112.34,189.00 112.34,189.00
             112.34,189.00 86.95,120.00 86.95,120.00
             81.08,104.24 79.70,93.78 61.00,90.00
             61.00,90.00 61.00,83.00 61.00,83.00 Z
           M 206.00,83.00
           C 206.00,83.00 313.00,83.00 313.00,83.00
             313.00,83.00 313.00,117.00 313.00,117.00
             303.53,116.88 306.29,115.26 300.30,106.00
             297.53,101.72 293.40,96.64 289.00,94.01
             285.04,91.63 279.54,91.06 275.00,91.00
             275.00,91.00 246.00,91.00 246.00,91.00
             246.00,91.00 246.00,146.00 246.00,146.00
             254.58,146.00 268.99,147.50 275.83,142.20
             279.21,139.57 281.27,135.99 282.64,132.00
             283.37,129.87 284.08,125.31 285.73,123.99
             287.21,122.82 290.18,123.02 292.00,123.00
             292.00,123.00 292.00,178.00 292.00,178.00
             292.00,178.00 285.00,178.00 285.00,178.00
             284.26,174.34 283.16,169.41 281.73,166.00
             275.40,150.86 259.39,154.00 246.00,154.00
             246.00,154.00 246.00,192.00 246.00,192.00
             246.06,196.42 246.76,205.45 249.51,208.87
             253.00,213.21 259.80,213.94 265.00,214.00
             273.85,214.10 290.42,214.88 297.96,210.59
             305.14,206.50 313.73,189.01 316.00,181.00
             316.00,181.00 324.00,181.00 324.00,181.00
             324.00,181.00 322.83,196.00 322.83,196.00
             322.83,196.00 321.00,222.00 321.00,222.00
             321.00,222.00 206.00,222.00 206.00,222.00
             206.00,222.00 206.00,215.00 206.00,215.00
             218.74,213.97 225.82,212.79 226.00,198.00
             226.00,198.00 226.00,110.00 226.00,110.00
             226.00,106.82 226.09,103.01 224.97,100.00
             222.09,92.27 213.04,91.32 206.00,90.00
             206.00,90.00 206.00,83.00 206.00,83.00 Z
           M 765.00,83.00
           C 765.00,83.00 809.00,83.00 809.00,83.00
             830.09,83.00 844.35,82.16 864.00,92.26
             907.37,114.55 909.70,182.70 869.00,209.14
             848.83,222.23 830.86,222.00 808.00,222.00
             808.00,222.00 765.00,222.00 765.00,222.00
             765.00,222.00 765.00,215.00 765.00,215.00
             780.08,214.67 783.98,211.00 784.00,196.00
             784.00,196.00 784.00,110.00 784.00,110.00
             783.98,94.95 779.41,91.94 765.00,90.00
             765.00,90.00 765.00,83.00 765.00,83.00 Z
           M 914.00,83.00
           C 914.00,83.00 1021.00,83.00 1021.00,83.00
             1021.00,83.00 1021.00,117.00 1021.00,117.00
             1011.53,116.88 1014.29,115.26 1008.30,106.00
             1005.53,101.72 1001.40,96.64 997.00,94.01
             993.04,91.63 987.54,91.06 983.00,91.00
             983.00,91.00 954.00,91.00 954.00,91.00
             954.00,91.00 954.00,146.00 954.00,146.00
             962.58,146.00 976.99,147.50 983.83,142.20
             987.21,139.57 989.27,135.99 990.64,132.00
             991.37,129.87 992.08,125.31 993.73,123.99
             995.21,122.82 998.18,123.02 1000.00,123.00
             1000.00,123.00 1000.00,178.00 1000.00,178.00
             1000.00,178.00 993.00,178.00 993.00,178.00
             992.26,174.34 991.16,169.41 989.73,166.00
             983.40,150.86 967.39,154.00 954.00,154.00
             954.00,154.00 954.00,192.00 954.00,192.00
             954.06,196.42 954.76,205.45 957.51,208.87
             961.00,213.21 967.80,213.94 973.00,214.00
             981.85,214.10 998.42,214.88 1005.96,210.59
             1013.14,206.50 1021.73,189.01 1024.00,181.00
             1024.00,181.00 1032.00,181.00 1032.00,181.00
             1032.00,181.00 1030.83,196.00 1030.83,196.00
             1030.83,196.00 1029.00,222.00 1029.00,222.00
             1029.00,222.00 914.00,222.00 914.00,222.00
             914.00,222.00 914.00,215.00 914.00,215.00
             926.74,213.97 933.82,212.79 934.00,198.00
             934.00,198.00 934.00,110.00 934.00,110.00
             934.00,106.82 934.09,103.01 932.97,100.00
             930.09,92.27 921.04,91.32 914.00,90.00
             914.00,90.00 914.00,83.00 914.00,83.00 Z
           M 1046.00,83.00
           C 1046.00,83.00 1100.00,83.00 1100.00,83.00
             1112.88,83.00 1126.35,82.44 1138.00,89.04
             1155.42,98.91 1158.77,122.25 1147.37,138.00
             1141.70,145.82 1129.28,151.83 1120.00,154.00
             1120.00,154.00 1148.63,192.00 1148.63,192.00
             1158.00,204.61 1164.17,213.59 1181.00,215.00
             1181.00,215.00 1181.00,222.00 1181.00,222.00
             1181.00,222.00 1151.00,222.00 1151.00,222.00
             1151.00,222.00 1144.33,221.43 1144.33,221.43
             1144.33,221.43 1138.95,215.00 1138.95,215.00
             1138.95,215.00 1130.33,202.00 1130.33,202.00
             1130.33,202.00 1109.37,173.00 1109.37,173.00
             1109.37,173.00 1098.96,161.02 1098.96,161.02
             1098.96,161.02 1085.00,160.00 1085.00,160.00
             1085.00,160.00 1085.00,198.00 1085.00,198.00
             1085.05,202.10 1085.38,207.49 1088.43,210.58
             1091.79,214.00 1100.33,214.79 1105.00,215.00
             1105.00,215.00 1105.00,222.00 1105.00,222.00
             1105.00,222.00 1046.00,222.00 1046.00,222.00
             1046.00,222.00 1046.00,215.00 1046.00,215.00
             1051.76,214.53 1059.38,214.30 1062.72,208.90
             1066.12,203.40 1065.00,186.98 1065.00,180.00
             1065.00,180.00 1065.00,110.00 1065.00,110.00
             1064.99,105.76 1065.02,99.65 1062.42,96.11
             1059.07,91.57 1051.27,90.71 1046.00,90.00
             1046.00,90.00 1046.00,83.00 1046.00,83.00 Z
           M 1184.00,83.00
           C 1184.00,83.00 1241.00,83.00 1241.00,83.00
             1241.00,83.00 1241.00,90.00 1241.00,90.00
             1227.70,91.79 1223.02,92.51 1223.00,107.00
             1223.00,107.00 1223.00,179.00 1223.00,179.00
             1223.09,198.37 1233.66,213.07 1254.00,213.96
             1258.93,214.18 1263.18,213.93 1268.00,212.76
             1281.81,209.40 1291.04,198.86 1293.85,185.00
             1293.85,185.00 1293.85,166.00 1293.85,166.00
             1293.85,166.00 1293.85,142.00 1293.85,142.00
             1293.85,142.00 1293.27,110.00 1293.27,110.00
             1292.45,104.33 1291.61,99.35 1286.90,95.42
             1282.96,92.13 1275.05,90.95 1270.00,90.00
             1270.00,90.00 1270.00,83.00 1270.00,83.00
             1270.00,83.00 1326.00,83.00 1326.00,83.00
             1326.00,83.00 1326.00,90.00 1326.00,90.00
             1321.14,90.66 1314.05,91.67 1310.21,94.80
             1301.75,101.70 1304.00,125.52 1304.00,136.00
             1304.00,136.00 1304.00,166.00 1304.00,166.00
             1304.00,186.43 1304.89,202.32 1286.00,215.56
             1281.82,218.49 1277.80,220.28 1273.00,221.92
             1267.74,223.73 1260.56,224.93 1255.00,225.00
             1248.40,225.07 1241.40,224.53 1235.00,222.84
             1230.11,221.56 1225.37,219.67 1221.00,217.12
             1200.87,205.40 1202.00,190.97 1202.00,171.00
             1202.00,171.00 1202.00,138.00 1202.00,138.00
             1202.00,138.00 1202.00,108.00 1202.00,108.00
             1201.98,103.33 1202.04,99.84 1198.72,96.11
             1194.80,91.69 1189.47,91.03 1184.00,90.00
             1184.00,90.00 1184.00,83.00 1184.00,83.00 Z
           M 1330.00,83.00
           C 1330.00,83.00 1362.00,83.00 1362.00,83.00
             1362.00,83.00 1369.54,83.99 1369.54,83.99
             1369.54,83.99 1376.37,92.00 1376.37,92.00
             1376.37,92.00 1388.15,108.00 1388.15,108.00
             1388.15,108.00 1447.00,188.00 1447.00,188.00
             1447.00,188.00 1447.00,127.00 1447.00,127.00
             1447.00,119.12 1447.91,105.60 1443.30,99.04
             1438.98,92.90 1429.92,91.30 1423.00,90.00
             1423.00,90.00 1423.00,83.00 1423.00,83.00
             1423.00,83.00 1479.00,83.00 1479.00,83.00
             1479.00,83.00 1479.00,90.00 1479.00,90.00
             1471.68,91.38 1463.18,92.56 1459.57,100.00
             1455.92,107.54 1457.00,129.78 1457.00,139.00
             1457.00,139.00 1457.00,223.00 1457.00,223.00
             1457.00,223.00 1448.17,221.98 1448.17,221.98
             1448.17,221.98 1440.58,213.00 1440.58,213.00
             1440.58,213.00 1427.15,195.00 1427.15,195.00
             1427.15,195.00 1364.00,110.00 1364.00,110.00
             1364.00,110.00 1364.00,182.00 1364.00,182.00
             1364.07,188.01 1365.31,201.14 1368.70,205.96
             1372.94,211.99 1382.16,213.62 1389.00,215.00
             1389.00,215.00 1389.00,222.00 1389.00,222.00
             1389.00,222.00 1332.00,222.00 1332.00,222.00
             1332.00,222.00 1332.00,215.00 1332.00,215.00
             1339.60,213.57 1347.69,212.33 1351.91,205.00
             1355.80,198.25 1355.00,177.40 1355.00,169.00
             1355.00,169.00 1355.00,125.00 1355.00,125.00
             1355.00,116.99 1355.63,108.06 1350.87,101.09
             1346.27,94.37 1337.60,91.53 1330.00,90.00
             1330.00,90.00 1330.00,83.00 1330.00,83.00 Z
           M 1634.00,83.00
           C 1634.00,83.00 1741.00,83.00 1741.00,83.00
             1741.00,83.00 1741.00,117.00 1741.00,117.00
             1731.53,116.88 1734.29,115.26 1728.30,106.00
             1725.53,101.72 1721.40,96.64 1717.00,94.01
             1713.04,91.63 1707.54,91.06 1703.00,91.00
             1703.00,91.00 1674.00,91.00 1674.00,91.00
             1674.00,91.00 1674.00,146.00 1674.00,146.00
             1682.58,146.00 1696.99,147.50 1703.83,142.20
             1707.21,139.57 1709.27,135.99 1710.64,132.00
             1711.37,129.87 1712.08,125.31 1713.73,123.99
             1715.21,122.82 1718.18,123.02 1720.00,123.00
             1720.00,123.00 1720.00,178.00 1720.00,178.00
             1720.00,178.00 1713.00,178.00 1713.00,178.00
             1712.26,174.34 1711.16,169.41 1709.73,166.00
             1703.40,150.86 1687.39,154.00 1674.00,154.00
             1674.00,154.00 1674.00,192.00 1674.00,192.00
             1674.06,196.42 1674.76,205.45 1677.51,208.87
             1681.00,213.21 1687.80,213.94 1693.00,214.00
             1701.85,214.10 1718.42,214.88 1725.96,210.59
             1733.14,206.50 1741.73,189.01 1744.00,181.00
             1744.00,181.00 1752.00,181.00 1752.00,181.00
             1752.00,181.00 1750.83,196.00 1750.83,196.00
             1750.83,196.00 1749.00,222.00 1749.00,222.00
             1749.00,222.00 1634.00,222.00 1634.00,222.00
             1634.00,222.00 1634.00,215.00 1634.00,215.00
             1646.74,213.97 1653.82,212.79 1654.00,198.00
             1654.00,198.00 1654.00,110.00 1654.00,110.00
             1654.00,106.82 1654.09,103.01 1652.97,100.00
             1650.09,92.27 1641.04,91.32 1634.00,90.00
             1634.00,90.00 1634.00,83.00 1634.00,83.00 Z
           M 1759.00,83.00
           C 1759.00,83.00 1791.00,83.00 1791.00,83.00
             1791.00,83.00 1798.54,83.99 1798.54,83.99
             1798.54,83.99 1805.37,92.00 1805.37,92.00
             1805.37,92.00 1817.15,108.00 1817.15,108.00
             1817.15,108.00 1876.00,188.00 1876.00,188.00
             1876.00,188.00 1876.00,127.00 1876.00,127.00
             1876.00,119.12 1876.91,105.60 1872.30,99.04
             1867.98,92.90 1858.92,91.30 1852.00,90.00
             1852.00,90.00 1852.00,83.00 1852.00,83.00
             1852.00,83.00 1906.00,83.00 1906.00,83.00
             1905.98,84.88 1906.16,87.86 1904.98,89.42
             1902.94,92.09 1896.06,91.38 1891.22,96.22
             1886.49,100.96 1886.01,110.61 1886.00,117.00
             1886.00,117.00 1886.00,223.00 1886.00,223.00
             1886.00,223.00 1877.17,221.98 1877.17,221.98
             1877.17,221.98 1869.58,213.00 1869.58,213.00
             1869.58,213.00 1856.15,195.00 1856.15,195.00
             1856.15,195.00 1793.00,110.00 1793.00,110.00
             1793.00,110.00 1793.00,182.00 1793.00,182.00
             1793.07,188.01 1794.31,201.14 1797.70,205.96
             1801.94,211.99 1811.16,213.62 1818.00,215.00
             1818.00,215.00 1818.00,222.00 1818.00,222.00
             1818.00,222.00 1761.00,222.00 1761.00,222.00
             1761.00,222.00 1761.00,215.00 1761.00,215.00
             1768.60,213.57 1776.69,212.33 1780.91,205.00
             1784.80,198.25 1784.00,177.40 1784.00,169.00
             1784.00,169.00 1784.00,125.00 1784.00,125.00
             1784.00,116.99 1784.63,108.06 1779.87,101.09
             1775.27,94.37 1766.60,91.53 1759.00,90.00
             1759.00,90.00 1759.00,83.00 1759.00,83.00 Z
           M 377.00,151.00
           C 388.20,151.00 399.33,152.29 409.00,145.37
             424.65,134.14 427.25,106.01 410.00,94.97
             401.56,89.56 386.93,91.00 377.00,91.00
             377.00,91.00 377.00,151.00 377.00,151.00 Z
           M 806.31,91.60
           C 803.71,93.79 804.07,94.62 804.00,98.00
             804.00,98.00 804.00,124.00 804.00,124.00
             804.00,124.00 804.00,181.00 804.00,181.00
             804.00,187.88 803.19,201.09 806.45,206.91
             809.73,212.78 817.90,213.93 824.00,214.00
             836.38,214.14 848.55,211.28 857.83,202.56
             867.56,193.42 871.88,178.93 873.07,166.00
             874.95,145.71 873.43,125.74 860.32,109.00
             847.65,92.82 829.97,90.65 811.00,91.00
             808.85,91.04 808.38,91.10 806.31,91.60 Z
           M 1085.00,151.00
           C 1096.20,151.00 1107.33,152.29 1117.00,145.37
             1132.65,134.14 1135.25,106.01 1118.00,94.97
             1109.56,89.56 1094.93,91.00 1085.00,91.00
             1085.00,91.00 1085.00,151.00 1085.00,151.00 Z
           M 531.00,112.00
           C 531.00,112.00 521.95,133.00 521.95,133.00
             521.95,133.00 510.00,165.00 510.00,165.00
             510.00,165.00 551.00,165.00 551.00,165.00
             551.00,165.00 531.00,112.00 531.00,112.00 Z
           M 649.00,483.00
           C 668.88,478.99 669.90,468.76 676.60,452.00
             676.60,452.00 703.95,382.00 703.95,382.00
             703.95,382.00 713.19,358.00 713.19,358.00
             714.28,355.19 715.25,350.90 718.22,349.60
             723.27,347.38 725.57,350.95 727.19,355.00
             727.19,355.00 737.20,381.00 737.20,381.00
             737.20,381.00 767.20,459.00 767.20,459.00
             771.72,470.50 776.26,482.55 791.00,482.66
             793.42,482.68 797.64,481.69 800.00,480.96
             812.59,477.05 813.86,466.58 814.00,455.00
             814.00,455.00 814.00,398.00 814.00,398.00
             814.00,389.22 815.08,377.78 810.47,370.04
             806.06,362.63 796.97,359.61 789.00,358.00
             789.00,358.00 789.00,351.00 789.00,351.00
             789.00,351.00 821.00,351.00 821.00,351.00
             821.00,351.00 828.54,351.99 828.54,351.99
             828.54,351.99 835.37,360.00 835.37,360.00
             835.37,360.00 847.15,376.00 847.15,376.00
             847.15,376.00 906.00,456.00 906.00,456.00
             906.00,456.00 906.00,395.00 906.00,395.00
             906.00,387.12 906.91,373.60 902.30,367.04
             897.98,360.90 888.92,359.30 882.00,358.00
             882.00,358.00 882.00,351.00 882.00,351.00
             882.00,351.00 938.00,351.00 938.00,351.00
             938.00,351.00 938.00,358.00 938.00,358.00
             930.68,359.38 922.18,360.56 918.57,368.00
             914.92,375.54 916.00,397.78 916.00,407.00
             916.00,407.00 916.00,491.00 916.00,491.00
             916.00,491.00 907.17,489.98 907.17,489.98
             907.17,489.98 899.58,481.00 899.58,481.00
             899.58,481.00 886.15,463.00 886.15,463.00
             886.15,463.00 823.00,378.00 823.00,378.00
             823.00,378.00 823.00,450.00 823.00,450.00
             823.07,456.01 824.31,469.14 827.70,473.96
             831.94,479.99 841.16,481.62 848.00,483.00
             848.00,483.00 848.00,490.00 848.00,490.00
             848.00,490.00 734.00,490.00 734.00,490.00
             734.00,490.00 734.00,483.00 734.00,483.00
             738.08,482.67 747.82,481.63 749.94,477.78
             751.72,474.53 748.50,468.31 747.34,465.00
             745.84,460.72 740.95,445.04 737.73,443.02
             735.76,441.79 732.28,442.00 730.00,442.00
             730.00,442.00 699.00,442.00 699.00,442.00
             696.28,442.01 692.79,441.66 690.65,443.60
             688.88,445.19 687.77,448.76 687.00,451.00
             685.13,456.48 679.24,470.84 682.02,475.90
             685.05,481.39 695.33,482.54 701.00,483.00
             701.00,483.00 701.00,490.00 701.00,490.00
             701.00,490.00 649.00,490.00 649.00,490.00
             649.00,490.00 649.00,483.00 649.00,483.00 Z
           M 942.00,351.00
           C 942.00,351.00 974.00,351.00 974.00,351.00
             974.00,351.00 981.54,351.99 981.54,351.99
             981.54,351.99 988.37,360.00 988.37,360.00
             988.37,360.00 1000.15,376.00 1000.15,376.00
             1000.15,376.00 1059.00,456.00 1059.00,456.00
             1059.00,456.00 1059.00,395.00 1059.00,395.00
             1059.00,387.12 1059.91,373.60 1055.30,367.04
             1050.98,360.90 1041.92,359.30 1035.00,358.00
             1035.00,358.00 1035.00,351.00 1035.00,351.00
             1035.00,351.00 1091.00,351.00 1091.00,351.00
             1091.00,351.00 1091.00,358.00 1091.00,358.00
             1083.68,359.38 1075.18,360.56 1071.57,368.00
             1067.92,375.54 1069.00,397.78 1069.00,407.00
             1069.00,407.00 1069.00,491.00 1069.00,491.00
             1069.00,491.00 1060.17,489.98 1060.17,489.98
             1060.17,489.98 1052.58,481.00 1052.58,481.00
             1052.58,481.00 1039.15,463.00 1039.15,463.00
             1039.15,463.00 976.00,378.00 976.00,378.00
             976.00,378.00 976.00,450.00 976.00,450.00
             976.07,456.01 977.31,469.14 980.70,473.96
             984.94,479.99 994.16,481.62 1001.00,483.00
             1001.00,483.00 1001.00,490.00 1001.00,490.00
             1001.00,490.00 944.00,490.00 944.00,490.00
             944.00,490.00 944.00,483.00 944.00,483.00
             951.60,481.57 959.69,480.33 963.91,473.00
             967.80,466.25 967.00,445.40 967.00,437.00
             967.00,437.00 967.00,393.00 967.00,393.00
             967.00,384.99 967.63,376.06 962.87,369.09
             958.27,362.37 949.60,359.53 942.00,358.00
             942.00,358.00 942.00,351.00 942.00,351.00 Z
           M 1101.00,351.00
           C 1101.00,351.00 1208.00,351.00 1208.00,351.00
             1208.00,351.00 1208.00,385.00 1208.00,385.00
             1198.53,384.88 1201.29,383.26 1195.30,374.00
             1192.53,369.72 1188.40,364.64 1184.00,362.01
             1180.04,359.63 1174.54,359.06 1170.00,359.00
             1170.00,359.00 1141.00,359.00 1141.00,359.00
             1141.00,359.00 1141.00,414.00 1141.00,414.00
             1149.58,414.00 1163.99,415.50 1170.83,410.20
             1174.21,407.57 1176.27,403.99 1177.64,400.00
             1178.37,397.87 1179.08,393.31 1180.73,391.99
             1182.21,390.82 1185.18,391.02 1187.00,391.00
             1187.00,391.00 1187.00,446.00 1187.00,446.00
             1187.00,446.00 1180.00,446.00 1180.00,446.00
             1179.26,442.34 1178.16,437.41 1176.73,434.00
             1170.40,418.86 1154.39,422.00 1141.00,422.00
             1141.00,422.00 1141.00,460.00 1141.00,460.00
             1141.06,464.42 1141.76,473.45 1144.51,476.87
             1148.00,481.21 1154.80,481.94 1160.00,482.00
             1168.85,482.10 1185.42,482.88 1192.96,478.59
             1200.14,474.50 1208.73,457.01 1211.00,449.00
             1211.00,449.00 1219.00,449.00 1219.00,449.00
             1219.00,449.00 1217.83,464.00 1217.83,464.00
             1217.83,464.00 1216.00,490.00 1216.00,490.00
             1216.00,490.00 1101.00,490.00 1101.00,490.00
             1101.00,490.00 1101.00,483.00 1101.00,483.00
             1113.74,481.97 1120.82,480.79 1121.00,466.00
             1121.00,466.00 1121.00,378.00 1121.00,378.00
             1121.00,374.82 1121.09,371.01 1119.97,368.00
             1117.09,360.27 1108.04,359.32 1101.00,358.00
             1101.00,358.00 1101.00,351.00 1101.00,351.00 Z
           M 1233.00,351.00
           C 1233.00,351.00 1291.00,351.00 1291.00,351.00
             1291.00,351.00 1291.00,358.00 1291.00,358.00
             1285.58,358.44 1278.03,359.42 1274.58,364.11
             1272.32,367.19 1272.05,372.29 1272.00,376.00
             1272.00,376.00 1272.00,413.00 1272.00,413.00
             1272.00,413.00 1338.00,413.00 1338.00,413.00
             1338.00,413.00 1338.00,378.00 1338.00,378.00
             1337.98,373.77 1337.83,368.69 1335.28,365.10
             1331.84,360.29 1324.52,358.78 1319.00,358.00
             1319.00,358.00 1319.00,351.00 1319.00,351.00
             1319.00,351.00 1377.00,351.00 1377.00,351.00
             1377.00,351.00 1377.00,358.00 1377.00,358.00
             1362.52,359.18 1358.02,362.19 1358.00,377.00
             1358.00,377.00 1358.00,464.00 1358.00,464.00
             1358.07,478.38 1363.09,481.83 1377.00,483.00
             1377.00,483.00 1377.00,490.00 1377.00,490.00
             1377.00,490.00 1319.00,490.00 1319.00,490.00
             1319.00,490.00 1319.00,483.00 1319.00,483.00
             1324.15,482.76 1331.93,482.18 1335.28,477.79
             1337.85,474.41 1337.98,469.07 1338.00,465.00
             1338.00,465.00 1338.00,422.00 1338.00,422.00
             1338.00,422.00 1272.00,422.00 1272.00,422.00
             1272.00,422.00 1272.00,464.00 1272.00,464.00
             1272.02,468.07 1272.15,473.41 1274.72,476.79
             1278.01,481.10 1285.88,482.57 1291.00,483.00
             1291.00,483.00 1291.00,490.00 1291.00,490.00
             1291.00,490.00 1233.00,490.00 1233.00,490.00
             1233.00,490.00 1233.00,483.00 1233.00,483.00
             1248.05,482.31 1251.98,479.31 1252.00,464.00
             1252.00,464.00 1252.00,378.00 1252.00,378.00
             1251.98,363.48 1247.02,359.98 1233.00,358.00
             1233.00,358.00 1233.00,351.00 1233.00,351.00 Z
           M 1392.00,351.00
           C 1392.00,351.00 1440.00,351.00 1440.00,351.00
             1440.00,351.00 1455.58,393.00 1455.58,393.00
             1455.58,393.00 1479.00,454.00 1479.00,454.00
             1479.00,454.00 1486.20,436.00 1486.20,436.00
             1486.20,436.00 1502.60,394.00 1502.60,394.00
             1506.84,383.39 1516.12,361.46 1517.00,351.00
             1517.00,351.00 1563.00,351.00 1563.00,351.00
             1563.00,351.00 1563.00,358.00 1563.00,358.00
             1557.25,358.47 1548.24,359.39 1545.31,365.04
             1543.82,367.92 1544.00,371.83 1544.00,375.00
             1544.00,375.00 1544.00,466.00 1544.00,466.00
             1544.02,479.72 1550.44,481.97 1563.00,483.00
             1563.00,483.00 1563.00,490.00 1563.00,490.00
             1563.00,490.00 1502.00,490.00 1502.00,490.00
             1502.00,490.00 1502.00,483.00 1502.00,483.00
             1509.41,482.66 1519.15,482.11 1522.26,474.00
             1523.13,471.73 1523.00,468.44 1523.00,466.00
             1523.00,466.00 1523.00,402.00 1523.00,402.00
             1523.00,394.22 1523.84,375.46 1522.00,369.00
             1522.00,369.00 1491.80,445.00 1491.80,445.00
             1491.80,445.00 1475.00,488.00 1475.00,488.00
             1475.00,488.00 1469.00,488.00 1469.00,488.00
             1469.00,488.00 1459.69,462.00 1459.69,462.00
             1459.69,462.00 1437.42,402.00 1437.42,402.00
             1437.42,402.00 1428.81,379.00 1428.81,379.00
             1428.81,379.00 1423.00,367.00 1423.00,367.00
             1423.00,367.00 1423.00,438.00 1423.00,438.00
             1423.00,446.99 1422.64,465.46 1427.08,473.00
             1431.07,479.76 1439.82,481.55 1447.00,483.00
             1447.00,483.00 1447.00,490.00 1447.00,490.00
             1447.00,490.00 1391.00,490.00 1391.00,490.00
             1391.00,490.00 1391.00,483.00 1391.00,483.00
             1398.30,482.01 1406.62,481.06 1410.59,473.98
             1414.59,466.83 1414.00,452.25 1414.00,444.00
             1414.00,444.00 1414.00,382.00 1414.00,382.00
             1413.81,366.10 1407.36,360.07 1392.00,358.00
             1392.00,358.00 1392.00,351.00 1392.00,351.00 Z
           M 1580.00,351.00
           C 1580.00,351.00 1687.00,351.00 1687.00,351.00
             1687.00,351.00 1687.00,385.00 1687.00,385.00
             1677.53,384.88 1680.29,383.26 1674.30,374.00
             1671.53,369.72 1667.40,364.64 1663.00,362.01
             1659.04,359.63 1653.54,359.06 1649.00,359.00
             1649.00,359.00 1620.00,359.00 1620.00,359.00
             1620.00,359.00 1620.00,414.00 1620.00,414.00
             1628.58,414.00 1642.99,415.50 1649.83,410.20
             1653.21,407.57 1655.27,403.99 1656.64,400.00
             1657.37,397.87 1658.08,393.31 1659.73,391.99
             1661.21,390.82 1664.18,391.02 1666.00,391.00
             1666.00,391.00 1666.00,446.00 1666.00,446.00
             1666.00,446.00 1659.00,446.00 1659.00,446.00
             1658.26,442.34 1657.16,437.41 1655.73,434.00
             1649.40,418.86 1633.39,422.00 1620.00,422.00
             1620.00,422.00 1620.00,460.00 1620.00,460.00
             1620.06,464.42 1620.76,473.45 1623.51,476.87
             1627.00,481.21 1633.80,481.94 1639.00,482.00
             1647.85,482.10 1664.42,482.88 1671.96,478.59
             1679.14,474.50 1687.73,457.01 1690.00,449.00
             1690.00,449.00 1698.00,449.00 1698.00,449.00
             1698.00,449.00 1696.83,464.00 1696.83,464.00
             1696.83,464.00 1695.00,490.00 1695.00,490.00
             1695.00,490.00 1580.00,490.00 1580.00,490.00
             1580.00,490.00 1580.00,483.00 1580.00,483.00
             1592.74,481.97 1599.82,480.79 1600.00,466.00
             1600.00,466.00 1600.00,378.00 1600.00,378.00
             1600.00,374.82 1600.09,371.01 1598.97,368.00
             1596.09,360.27 1587.04,359.32 1580.00,358.00
             1580.00,358.00 1580.00,351.00 1580.00,351.00 Z
           M 1705.00,351.00
           C 1705.00,351.00 1737.00,351.00 1737.00,351.00
             1737.00,351.00 1744.54,351.99 1744.54,351.99
             1744.54,351.99 1751.37,360.00 1751.37,360.00
             1751.37,360.00 1763.15,376.00 1763.15,376.00
             1763.15,376.00 1822.00,456.00 1822.00,456.00
             1822.00,456.00 1822.00,395.00 1822.00,395.00
             1822.00,387.12 1822.91,373.60 1818.30,367.04
             1813.98,360.90 1804.92,359.30 1798.00,358.00
             1798.00,358.00 1798.00,351.00 1798.00,351.00
             1798.00,351.00 1854.00,351.00 1854.00,351.00
             1854.00,351.00 1854.00,358.00 1854.00,358.00
             1846.68,359.38 1838.18,360.56 1834.57,368.00
             1830.92,375.54 1832.00,397.78 1832.00,407.00
             1832.00,407.00 1832.00,491.00 1832.00,491.00
             1832.00,491.00 1823.17,489.98 1823.17,489.98
             1823.17,489.98 1815.58,481.00 1815.58,481.00
             1815.58,481.00 1802.15,463.00 1802.15,463.00
             1802.15,463.00 1739.00,378.00 1739.00,378.00
             1739.00,378.00 1739.00,450.00 1739.00,450.00
             1739.07,456.01 1740.31,469.14 1743.70,473.96
             1747.94,479.99 1757.16,481.62 1764.00,483.00
             1764.00,483.00 1764.00,490.00 1764.00,490.00
             1764.00,490.00 1707.00,490.00 1707.00,490.00
             1707.00,490.00 1707.00,483.00 1707.00,483.00
             1714.60,481.57 1722.69,480.33 1726.91,473.00
             1730.80,466.25 1730.00,445.40 1730.00,437.00
             1730.00,437.00 1730.00,393.00 1730.00,393.00
             1730.00,384.99 1730.63,376.06 1725.87,369.09
             1721.27,362.37 1712.60,359.53 1705.00,358.00
             1705.00,358.00 1705.00,351.00 1705.00,351.00 Z
           M 715.00,380.00
           C 715.00,380.00 705.95,401.00 705.95,401.00
             705.95,401.00 694.00,433.00 694.00,433.00
             694.00,433.00 735.00,433.00 735.00,433.00
             735.00,433.00 715.00,380.00 715.00,380.00 Z
           M 1887.00,490.00
           C 1881.43,490.00 1875.53,490.33 1871.42,485.78
             1864.51,478.14 1869.58,466.64 1880.00,466.04
             1892.55,465.33 1896.87,473.76 1897.00,485.00
             1897.03,487.93 1897.10,491.13 1896.48,494.00
             1893.76,506.74 1880.55,519.77 1869.00,525.00
             1869.00,525.00 1865.00,518.00 1865.00,518.00
             1876.11,510.50 1884.20,503.70 1887.00,490.00 Z
           M 811.00,749.00
           C 784.26,759.70 754.11,767.86 727.00,753.10
             684.69,730.08 680.24,662.13 716.00,632.46
             732.73,618.59 753.68,613.34 775.00,617.08
             779.58,617.89 783.70,619.08 788.00,620.86
             789.91,621.65 794.00,623.77 795.91,623.65
             798.60,623.49 799.49,621.19 801.51,619.99
             803.61,618.74 806.62,619.01 809.00,619.00
             809.00,619.00 810.00,636.00 810.00,636.00
             810.00,636.00 810.00,667.00 810.00,667.00
             808.00,666.99 804.34,667.26 802.72,666.01
             801.11,664.75 800.30,660.96 799.65,659.00
             798.36,655.16 796.11,649.54 794.21,646.00
             787.76,633.99 776.98,625.17 763.00,625.00
             738.24,624.71 724.11,640.93 718.65,664.00
             711.56,693.98 716.97,739.11 751.00,750.25
             756.70,752.12 760.14,752.06 766.00,752.00
             772.29,751.92 783.38,749.63 787.69,744.79
             790.48,741.64 789.80,738.81 790.17,735.00
             790.86,727.93 792.51,713.93 787.57,708.21
             783.36,703.34 773.15,702.50 767.00,702.00
             767.00,702.00 767.00,695.00 767.00,695.00
             767.00,695.00 828.00,695.00 828.00,695.00
             828.00,695.00 828.00,702.00 828.00,702.00
             822.97,702.92 817.07,703.26 813.39,707.22
             809.82,711.07 810.01,715.15 810.00,720.00
             809.99,727.86 809.28,741.92 811.00,749.00 Z
           M 394.00,751.00
           C 413.88,746.99 414.90,736.76 421.60,720.00
             421.60,720.00 448.95,650.00 448.95,650.00
             448.95,650.00 458.19,626.00 458.19,626.00
             459.28,623.19 460.25,618.90 463.22,617.60
             468.27,615.38 470.57,618.95 472.19,623.00
             472.19,623.00 482.20,649.00 482.20,649.00
             482.20,649.00 512.20,727.00 512.20,727.00
             516.72,738.50 521.26,750.55 536.00,750.66
             538.42,750.68 542.64,749.69 545.00,748.96
             557.59,745.05 558.86,734.58 559.00,723.00
             559.00,723.00 559.00,666.00 559.00,666.00
             559.00,657.22 560.08,645.78 555.47,638.04
             551.06,630.63 541.97,627.61 534.00,626.00
             534.00,626.00 534.00,619.00 534.00,619.00
             534.00,619.00 566.00,619.00 566.00,619.00
             566.00,619.00 573.54,619.99 573.54,619.99
             573.54,619.99 580.37,628.00 580.37,628.00
             580.37,628.00 592.15,644.00 592.15,644.00
             592.15,644.00 651.00,724.00 651.00,724.00
             651.00,724.00 651.00,663.00 651.00,663.00
             651.00,655.12 651.91,641.60 647.30,635.04
             642.98,628.90 633.92,627.30 627.00,626.00
             627.00,626.00 627.00,619.00 627.00,619.00
             627.00,619.00 683.00,619.00 683.00,619.00
             683.00,619.00 683.00,626.00 683.00,626.00
             675.68,627.38 667.18,628.56 663.57,636.00
             659.92,643.54 661.00,665.78 661.00,675.00
             661.00,675.00 661.00,759.00 661.00,759.00
             661.00,759.00 652.17,757.98 652.17,757.98
             652.17,757.98 644.58,749.00 644.58,749.00
             644.58,749.00 631.15,731.00 631.15,731.00
             631.15,731.00 568.00,646.00 568.00,646.00
             568.00,646.00 568.00,718.00 568.00,718.00
             568.07,724.01 569.31,737.14 572.70,741.96
             576.94,747.99 586.16,749.62 593.00,751.00
             593.00,751.00 593.00,758.00 593.00,758.00
             593.00,758.00 479.00,758.00 479.00,758.00
             479.00,758.00 479.00,751.00 479.00,751.00
             483.08,750.67 492.82,749.63 494.94,745.78
             496.72,742.53 493.50,736.31 492.34,733.00
             490.84,728.72 485.95,713.04 482.73,711.02
             480.76,709.79 477.28,710.00 475.00,710.00
             475.00,710.00 444.00,710.00 444.00,710.00
             441.28,710.01 437.79,709.66 435.65,711.60
             433.88,713.19 432.77,716.76 432.00,719.00
             430.13,724.48 424.24,738.84 427.02,743.90
             430.05,749.39 440.33,750.54 446.00,751.00
             446.00,751.00 446.00,758.00 446.00,758.00
             446.00,758.00 394.00,758.00 394.00,758.00
             394.00,758.00 394.00,751.00 394.00,751.00 Z
           M 838.00,619.00
           C 838.00,619.00 945.00,619.00 945.00,619.00
             945.00,619.00 945.00,653.00 945.00,653.00
             935.53,652.88 938.29,651.26 932.30,642.00
             929.53,637.72 925.40,632.64 921.00,630.01
             917.04,627.63 911.54,627.06 907.00,627.00
             907.00,627.00 878.00,627.00 878.00,627.00
             878.00,627.00 878.00,682.00 878.00,682.00
             886.58,682.00 900.99,683.50 907.83,678.20
             911.21,675.57 913.27,671.99 914.64,668.00
             915.37,665.87 916.08,661.31 917.73,659.99
             919.21,658.82 922.18,659.02 924.00,659.00
             924.00,659.00 924.00,714.00 924.00,714.00
             924.00,714.00 917.00,714.00 917.00,714.00
             916.26,710.34 915.16,705.41 913.73,702.00
             907.40,686.86 891.39,690.00 878.00,690.00
             878.00,690.00 878.00,728.00 878.00,728.00
             878.06,732.42 878.76,741.45 881.51,744.87
             885.00,749.21 891.80,749.94 897.00,750.00
             905.85,750.10 922.42,750.88 929.96,746.59
             937.14,742.50 945.73,725.01 948.00,717.00
             948.00,717.00 956.00,717.00 956.00,717.00
             956.00,717.00 954.83,732.00 954.83,732.00
             954.83,732.00 953.00,758.00 953.00,758.00
             953.00,758.00 838.00,758.00 838.00,758.00
             838.00,758.00 838.00,751.00 838.00,751.00
             850.74,749.97 857.82,748.79 858.00,734.00
             858.00,734.00 858.00,646.00 858.00,646.00
             858.00,642.82 858.09,639.01 856.97,636.00
             854.09,628.27 845.04,627.32 838.00,626.00
             838.00,626.00 838.00,619.00 838.00,619.00 Z
           M 970.00,619.00
           C 970.00,619.00 1028.00,619.00 1028.00,619.00
             1028.00,619.00 1028.00,626.00 1028.00,626.00
             1022.58,626.44 1015.03,627.42 1011.58,632.11
             1009.32,635.19 1009.05,640.29 1009.00,644.00
             1009.00,644.00 1009.00,681.00 1009.00,681.00
             1009.00,681.00 1075.00,681.00 1075.00,681.00
             1075.00,681.00 1075.00,646.00 1075.00,646.00
             1074.98,641.77 1074.83,636.69 1072.28,633.10
             1068.84,628.29 1061.52,626.78 1056.00,626.00
             1056.00,626.00 1056.00,619.00 1056.00,619.00
             1056.00,619.00 1114.00,619.00 1114.00,619.00
             1114.00,619.00 1114.00,626.00 1114.00,626.00
             1099.52,627.18 1095.02,630.19 1095.00,645.00
             1095.00,645.00 1095.00,732.00 1095.00,732.00
             1095.07,746.38 1100.09,749.83 1114.00,751.00
             1114.00,751.00 1114.00,758.00 1114.00,758.00
             1114.00,758.00 1056.00,758.00 1056.00,758.00
             1056.00,758.00 1056.00,751.00 1056.00,751.00
             1061.15,750.76 1068.93,750.18 1072.28,745.79
             1074.85,742.41 1074.98,737.07 1075.00,733.00
             1075.00,733.00 1075.00,690.00 1075.00,690.00
             1075.00,690.00 1009.00,690.00 1009.00,690.00
             1009.00,690.00 1009.00,732.00 1009.00,732.00
             1009.02,736.07 1009.15,741.41 1011.72,744.79
             1015.01,749.10 1022.88,750.57 1028.00,751.00
             1028.00,751.00 1028.00,758.00 1028.00,758.00
             1028.00,758.00 970.00,758.00 970.00,758.00
             970.00,758.00 970.00,751.00 970.00,751.00
             985.05,750.31 988.98,747.31 989.00,732.00
             989.00,732.00 989.00,646.00 989.00,646.00
             988.98,631.48 984.02,627.98 970.00,626.00
             970.00,626.00 970.00,619.00 970.00,619.00 Z
           M 1132.00,619.00
           C 1132.00,619.00 1239.00,619.00 1239.00,619.00
             1239.00,619.00 1239.00,653.00 1239.00,653.00
             1229.53,652.88 1232.29,651.26 1226.30,642.00
             1223.53,637.72 1219.40,632.64 1215.00,630.01
             1211.04,627.63 1205.54,627.06 1201.00,627.00
             1201.00,627.00 1172.00,627.00 1172.00,627.00
             1172.00,627.00 1172.00,682.00 1172.00,682.00
             1180.58,682.00 1194.99,683.50 1201.83,678.20
             1205.21,675.57 1207.27,671.99 1208.64,668.00
             1209.37,665.87 1210.08,661.31 1211.73,659.99
             1213.21,658.82 1216.18,659.02 1218.00,659.00
             1218.00,659.00 1218.00,714.00 1218.00,714.00
             1218.00,714.00 1211.00,714.00 1211.00,714.00
             1210.26,710.34 1209.16,705.41 1207.73,702.00
             1201.40,686.86 1185.39,690.00 1172.00,690.00
             1172.00,690.00 1172.00,728.00 1172.00,728.00
             1172.06,732.42 1172.76,741.45 1175.51,744.87
             1179.00,749.21 1185.80,749.94 1191.00,750.00
             1199.85,750.10 1216.42,750.88 1223.96,746.59
             1231.14,742.50 1239.73,725.01 1242.00,717.00
             1242.00,717.00 1250.00,717.00 1250.00,717.00
             1250.00,717.00 1248.83,732.00 1248.83,732.00
             1248.83,732.00 1247.00,758.00 1247.00,758.00
             1247.00,758.00 1132.00,758.00 1132.00,758.00
             1132.00,758.00 1132.00,751.00 1132.00,751.00
             1144.74,749.97 1151.82,748.79 1152.00,734.00
             1152.00,734.00 1152.00,646.00 1152.00,646.00
             1152.00,642.82 1152.09,639.01 1150.97,636.00
             1148.09,628.27 1139.04,627.32 1132.00,626.00
             1132.00,626.00 1132.00,619.00 1132.00,619.00 Z
           M 1257.00,619.00
           C 1257.00,619.00 1289.00,619.00 1289.00,619.00
             1289.00,619.00 1296.54,619.99 1296.54,619.99
             1296.54,619.99 1303.37,628.00 1303.37,628.00
             1303.37,628.00 1315.15,644.00 1315.15,644.00
             1315.15,644.00 1374.00,724.00 1374.00,724.00
             1374.00,724.00 1374.00,663.00 1374.00,663.00
             1374.00,655.12 1374.91,641.60 1370.30,635.04
             1365.98,628.90 1356.92,627.30 1350.00,626.00
             1350.00,626.00 1350.00,619.00 1350.00,619.00
             1350.00,619.00 1406.00,619.00 1406.00,619.00
             1406.00,619.00 1406.00,626.00 1406.00,626.00
             1398.68,627.38 1390.18,628.56 1386.57,636.00
             1382.92,643.54 1384.00,665.78 1384.00,675.00
             1384.00,675.00 1384.00,759.00 1384.00,759.00
             1384.00,759.00 1375.17,757.98 1375.17,757.98
             1375.17,757.98 1367.58,749.00 1367.58,749.00
             1367.58,749.00 1354.15,731.00 1354.15,731.00
             1354.15,731.00 1291.00,646.00 1291.00,646.00
             1291.00,646.00 1291.00,718.00 1291.00,718.00
             1291.07,724.01 1292.31,737.14 1295.70,741.96
             1299.94,747.99 1309.16,749.62 1316.00,751.00
             1316.00,751.00 1316.00,758.00 1316.00,758.00
             1316.00,758.00 1259.00,758.00 1259.00,758.00
             1259.00,758.00 1259.00,751.00 1259.00,751.00
             1266.60,749.57 1274.69,748.33 1278.91,741.00
             1282.80,734.25 1282.00,713.40 1282.00,705.00
             1282.00,705.00 1282.00,661.00 1282.00,661.00
             1282.00,652.99 1282.63,644.06 1277.87,637.09
             1273.27,630.37 1264.60,627.53 1257.00,626.00
             1257.00,626.00 1257.00,619.00 1257.00,619.00 Z
           M 1463.00,619.00
           C 1463.00,619.00 1520.00,619.00 1520.00,619.00
             1520.00,619.00 1520.00,626.00 1520.00,626.00
             1506.70,627.79 1502.02,628.51 1502.00,643.00
             1502.00,643.00 1502.00,715.00 1502.00,715.00
             1502.09,734.37 1512.66,749.07 1533.00,749.96
             1537.93,750.18 1542.18,749.93 1547.00,748.76
             1560.81,745.40 1570.04,734.86 1572.85,721.00
             1572.85,721.00 1572.85,702.00 1572.85,702.00
             1572.85,702.00 1572.85,678.00 1572.85,678.00
             1572.85,678.00 1572.27,646.00 1572.27,646.00
             1571.45,640.33 1570.61,635.35 1565.90,631.42
             1561.96,628.13 1554.05,626.95 1549.00,626.00
             1549.00,626.00 1549.00,619.00 1549.00,619.00
             1549.00,619.00 1605.00,619.00 1605.00,619.00
             1605.00,619.00 1605.00,626.00 1605.00,626.00
             1600.14,626.66 1593.05,627.67 1589.21,630.80
             1580.75,637.70 1583.00,661.52 1583.00,672.00
             1583.00,672.00 1583.00,702.00 1583.00,702.00
             1583.00,722.43 1583.89,738.32 1565.00,751.56
             1560.82,754.49 1556.80,756.28 1552.00,757.92
             1546.74,759.73 1539.56,760.93 1534.00,761.00
             1527.40,761.07 1520.40,760.53 1514.00,758.84
             1509.11,757.56 1504.37,755.67 1500.00,753.12
             1479.87,741.40 1481.00,726.97 1481.00,707.00
             1481.00,707.00 1481.00,674.00 1481.00,674.00
             1481.00,674.00 1481.00,644.00 1481.00,644.00
             1480.98,639.33 1481.04,635.84 1477.72,632.11
             1473.80,627.69 1468.47,627.03 1463.00,626.00
             1463.00,626.00 1463.00,619.00 1463.00,619.00 Z
           M 1609.00,619.00
           C 1609.00,619.00 1641.00,619.00 1641.00,619.00
             1641.00,619.00 1648.54,619.99 1648.54,619.99
             1648.54,619.99 1655.37,628.00 1655.37,628.00
             1655.37,628.00 1667.15,644.00 1667.15,644.00
             1667.15,644.00 1726.00,724.00 1726.00,724.00
             1726.00,724.00 1726.00,663.00 1726.00,663.00
             1726.00,655.12 1726.91,641.60 1722.30,635.04
             1717.98,628.90 1708.92,627.30 1702.00,626.00
             1702.00,626.00 1702.00,619.00 1702.00,619.00
             1702.00,619.00 1758.00,619.00 1758.00,619.00
             1758.00,619.00 1758.00,626.00 1758.00,626.00
             1750.68,627.38 1742.18,628.56 1738.57,636.00
             1734.92,643.54 1736.00,665.78 1736.00,675.00
             1736.00,675.00 1736.00,759.00 1736.00,759.00
             1736.00,759.00 1727.17,757.98 1727.17,757.98
             1727.17,757.98 1719.58,749.00 1719.58,749.00
             1719.58,749.00 1706.15,731.00 1706.15,731.00
             1706.15,731.00 1643.00,646.00 1643.00,646.00
             1643.00,646.00 1643.00,718.00 1643.00,718.00
             1643.07,724.01 1644.31,737.14 1647.70,741.96
             1651.94,747.99 1661.16,749.62 1668.00,751.00
             1668.00,751.00 1668.00,758.00 1668.00,758.00
             1668.00,758.00 1611.00,758.00 1611.00,758.00
             1611.00,758.00 1611.00,751.00 1611.00,751.00
             1618.60,749.57 1626.69,748.33 1630.91,741.00
             1634.80,734.25 1634.00,713.40 1634.00,705.00
             1634.00,705.00 1634.00,661.00 1634.00,661.00
             1634.00,652.99 1634.63,644.06 1629.87,637.09
             1625.27,630.37 1616.60,627.53 1609.00,626.00
             1609.00,626.00 1609.00,619.00 1609.00,619.00 Z
           M 1769.00,619.00
           C 1769.00,619.00 1813.00,619.00 1813.00,619.00
             1834.09,619.00 1848.35,618.16 1868.00,628.26
             1911.37,650.55 1913.70,718.70 1873.00,745.14
             1852.83,758.23 1834.86,758.00 1812.00,758.00
             1812.00,758.00 1769.00,758.00 1769.00,758.00
             1769.00,758.00 1769.00,751.00 1769.00,751.00
             1784.08,750.67 1787.98,747.00 1788.00,732.00
             1788.00,732.00 1788.00,646.00 1788.00,646.00
             1787.98,630.95 1783.41,627.94 1769.00,626.00
             1769.00,626.00 1769.00,619.00 1769.00,619.00 Z
           M 1810.31,627.60
           C 1807.71,629.79 1808.07,630.62 1808.00,634.00
             1808.00,634.00 1808.00,660.00 1808.00,660.00
             1808.00,660.00 1808.00,717.00 1808.00,717.00
             1808.00,723.88 1807.19,737.09 1810.45,742.91
             1813.73,748.78 1821.90,749.93 1828.00,750.00
             1840.38,750.14 1852.55,747.28 1861.83,738.56
             1871.56,729.42 1875.88,714.93 1877.07,702.00
             1878.95,681.71 1877.43,661.74 1864.32,645.00
             1851.65,628.82 1833.97,626.65 1815.00,627.00
             1812.85,627.04 1812.38,627.10 1810.31,627.60 Z
           M 460.00,648.00
           C 460.00,648.00 450.95,669.00 450.95,669.00
             450.95,669.00 439.00,701.00 439.00,701.00
             439.00,701.00 480.00,701.00 480.00,701.00
             480.00,701.00 460.00,648.00 460.00,648.00 Z
           M 807.00,1017.00
           C 780.26,1027.70 750.11,1035.86 723.00,1021.10
             680.69,998.08 676.24,930.13 712.00,900.46
             728.73,886.59 749.68,881.34 771.00,885.08
             775.58,885.89 779.70,887.08 784.00,888.86
             785.91,889.65 790.00,891.77 791.91,891.65
             794.60,891.49 795.49,889.19 797.51,887.99
             799.61,886.74 802.62,887.01 805.00,887.00
             805.00,887.00 806.00,904.00 806.00,904.00
             806.00,904.00 806.00,935.00 806.00,935.00
             804.00,934.99 800.34,935.26 798.72,934.01
             797.11,932.75 796.30,928.96 795.65,927.00
             794.36,923.16 792.11,917.54 790.21,914.00
             783.76,901.99 772.98,893.17 759.00,893.00
             734.24,892.71 720.11,908.93 714.65,932.00
             707.56,961.98 712.97,1007.11 747.00,1018.25
             752.70,1020.12 756.14,1020.06 762.00,1020.00
             768.29,1019.92 779.38,1017.63 783.69,1012.79
             786.48,1009.64 785.80,1006.81 786.17,1003.00
             786.86,995.93 788.51,981.93 783.57,976.21
             779.36,971.34 769.15,970.50 763.00,970.00
             763.00,970.00 763.00,963.00 763.00,963.00
             763.00,963.00 824.00,963.00 824.00,963.00
             824.00,963.00 824.00,970.00 824.00,970.00
             818.97,970.92 813.07,971.26 809.39,975.22
             805.82,979.07 806.01,983.15 806.00,988.00
             805.99,995.86 805.28,1009.92 807.00,1017.00 Z
           M 974.00,979.00
           C 977.57,994.65 987.47,1011.86 1003.00,1018.07
             1007.98,1020.06 1011.76,1020.06 1017.00,1020.00
             1031.48,1019.83 1041.71,1010.98 1041.66,996.00
             1041.63,986.65 1035.82,977.32 1028.00,972.47
             1013.48,963.46 987.95,961.05 975.79,944.00
             965.78,929.98 968.44,906.93 981.09,895.30
             990.24,886.88 1003.78,883.23 1016.00,884.09
             1021.53,884.48 1026.88,886.17 1032.00,888.20
             1033.85,888.94 1039.39,891.62 1040.91,891.59
             1043.56,891.54 1044.52,889.17 1046.51,887.99
             1048.61,886.74 1051.62,887.01 1054.00,887.00
             1054.00,887.00 1055.00,909.00 1055.00,909.00
             1055.00,909.00 1055.00,933.00 1055.00,933.00
             1052.96,932.99 1049.36,933.26 1047.70,932.01
             1045.88,930.64 1045.21,927.10 1044.57,925.00
             1043.41,921.27 1041.48,916.49 1039.73,913.00
             1034.09,901.76 1025.05,893.31 1012.00,893.01
             991.70,892.55 980.46,912.90 993.39,928.99
             1007.16,946.12 1052.29,946.76 1059.49,975.00
             1060.44,978.74 1061.11,984.14 1060.96,988.00
             1059.35,1029.41 1008.20,1038.97 979.00,1019.00
             975.53,1025.98 974.45,1025.97 966.96,1026.00
             966.96,1026.00 966.96,1011.00 966.96,1011.00
             966.96,1011.00 966.00,1000.00 966.00,1000.00
             966.00,1000.00 966.00,979.00 966.00,979.00
             966.00,979.00 974.00,979.00 974.00,979.00 Z
           M 1188.00,1019.00
           C 1207.93,1016.19 1209.67,1005.32 1216.20,989.00
             1216.20,989.00 1243.19,920.00 1243.19,920.00
             1243.19,920.00 1253.19,894.00 1253.19,894.00
             1254.81,889.83 1255.49,885.14 1260.97,885.11
             1265.73,885.08 1266.56,889.29 1267.95,893.00
             1267.95,893.00 1278.40,920.00 1278.40,920.00
             1278.40,920.00 1304.58,988.00 1304.58,988.00
             1310.82,1004.40 1311.76,1015.12 1331.00,1019.00
             1331.00,1019.00 1331.00,1026.00 1331.00,1026.00
             1331.00,1026.00 1274.00,1026.00 1274.00,1026.00
             1274.00,1026.00 1274.00,1019.00 1274.00,1019.00
             1278.08,1018.67 1287.82,1017.63 1289.94,1013.78
             1291.72,1010.53 1288.50,1004.31 1287.34,1001.00
             1285.84,996.72 1280.95,981.04 1277.73,979.02
             1275.76,977.79 1272.28,978.00 1270.00,978.00
             1270.00,978.00 1239.00,978.00 1239.00,978.00
             1236.28,978.01 1232.79,977.66 1230.65,979.60
             1228.88,981.19 1227.77,984.76 1227.00,987.00
             1225.13,992.48 1219.24,1006.84 1222.02,1011.90
             1225.05,1017.39 1235.33,1018.54 1241.00,1019.00
             1241.00,1019.00 1241.00,1026.00 1241.00,1026.00
             1241.00,1026.00 1188.00,1026.00 1188.00,1026.00
             1188.00,1026.00 1188.00,1019.00 1188.00,1019.00 Z
           M 834.00,887.00
           C 834.00,887.00 941.00,887.00 941.00,887.00
             941.00,887.00 941.00,921.00 941.00,921.00
             931.53,920.88 934.29,919.26 928.30,910.00
             925.53,905.72 921.40,900.64 917.00,898.01
             913.04,895.63 907.54,895.06 903.00,895.00
             903.00,895.00 874.00,895.00 874.00,895.00
             874.00,895.00 874.00,950.00 874.00,950.00
             882.58,950.00 896.99,951.50 903.83,946.20
             907.21,943.57 909.27,939.99 910.64,936.00
             911.37,933.87 912.08,929.31 913.73,927.99
             915.21,926.82 918.18,927.02 920.00,927.00
             920.00,927.00 920.00,982.00 920.00,982.00
             920.00,982.00 913.00,982.00 913.00,982.00
             912.26,978.34 911.16,973.41 909.73,970.00
             903.40,954.86 887.39,958.00 874.00,958.00
             874.00,958.00 874.00,996.00 874.00,996.00
             874.06,1000.42 874.76,1009.45 877.51,1012.87
             881.00,1017.21 887.80,1017.94 893.00,1018.00
             901.85,1018.10 918.42,1018.88 925.96,1014.59
             933.14,1010.50 941.73,993.01 944.00,985.00
             944.00,985.00 952.00,985.00 952.00,985.00
             952.00,985.00 950.83,1000.00 950.83,1000.00
             950.83,1000.00 949.00,1026.00 949.00,1026.00
             949.00,1026.00 834.00,1026.00 834.00,1026.00
             834.00,1026.00 834.00,1019.00 834.00,1019.00
             846.74,1017.97 853.82,1016.79 854.00,1002.00
             854.00,1002.00 854.00,914.00 854.00,914.00
             854.00,910.82 854.09,907.01 852.97,904.00
             850.09,896.27 841.04,895.32 834.00,894.00
             834.00,894.00 834.00,887.00 834.00,887.00 Z
           M 1070.00,887.00
           C 1070.00,887.00 1191.00,887.00 1191.00,887.00
             1191.00,887.00 1191.00,925.00 1191.00,925.00
             1189.02,924.97 1186.18,925.15 1184.51,923.98
             1182.67,922.69 1180.88,917.29 1179.68,915.00
             1177.09,910.08 1173.01,903.88 1168.96,900.11
             1161.68,893.32 1150.23,895.00 1141.00,895.00
             1141.00,895.00 1141.00,1001.00 1141.00,1001.00
             1141.01,1004.33 1140.80,1007.88 1142.45,1010.91
             1145.80,1017.02 1156.63,1018.48 1163.00,1019.00
             1163.00,1019.00 1163.00,1026.00 1163.00,1026.00
             1163.00,1026.00 1098.00,1026.00 1098.00,1026.00
             1098.00,1026.00 1098.00,1019.00 1098.00,1019.00
             1105.42,1018.40 1116.10,1018.17 1119.26,1010.00
             1120.13,1007.75 1120.00,1004.43 1120.00,1002.00
             1120.00,1002.00 1120.00,895.00 1120.00,895.00
             1109.62,895.00 1099.03,893.16 1091.04,901.04
             1086.98,905.04 1083.85,909.96 1081.26,915.00
             1080.21,917.04 1077.86,922.85 1076.30,924.01
             1074.72,925.18 1071.90,924.98 1070.00,925.00
             1070.00,925.00 1070.00,887.00 1070.00,887.00 Z
           M 1336.00,887.00
           C 1336.00,887.00 1395.00,887.00 1395.00,887.00
             1395.00,887.00 1395.00,894.00 1395.00,894.00
             1389.05,894.49 1380.40,895.41 1377.14,901.04
             1373.97,906.51 1375.00,923.10 1375.00,930.00
             1375.00,930.00 1375.00,996.00 1375.00,996.00
             1375.06,1000.47 1375.70,1010.30 1378.65,1013.61
             1382.42,1017.85 1389.76,1017.99 1395.00,1018.00
             1404.75,1018.02 1417.49,1018.67 1424.68,1010.90
             1428.43,1006.84 1433.24,998.05 1435.97,993.00
             1437.07,990.96 1438.97,986.19 1440.65,984.99
             1442.29,983.82 1445.06,984.02 1447.00,984.00
             1447.00,984.00 1445.17,1013.00 1445.17,1013.00
             1445.17,1013.00 1443.83,1024.43 1443.83,1024.43
             1443.83,1024.43 1436.00,1026.00 1436.00,1026.00
             1436.00,1026.00 1336.00,1026.00 1336.00,1026.00
             1336.00,1026.00 1336.00,1019.00 1336.00,1019.00
             1350.97,1017.79 1354.98,1015.87 1355.00,1000.00
             1355.00,1000.00 1355.00,913.00 1355.00,913.00
             1354.83,898.53 1348.85,896.59 1336.00,894.00
             1336.00,894.00 1336.00,887.00 1336.00,887.00 Z
           M 1449.00,887.00
           C 1449.00,887.00 1570.00,887.00 1570.00,887.00
             1570.00,887.00 1570.00,925.00 1570.00,925.00
             1568.02,924.97 1565.18,925.15 1563.51,923.98
             1561.67,922.69 1559.88,917.29 1558.68,915.00
             1556.09,910.08 1552.01,903.88 1547.96,900.11
             1540.68,893.32 1529.23,895.00 1520.00,895.00
             1520.00,895.00 1520.00,1001.00 1520.00,1001.00
             1520.01,1004.33 1519.80,1007.88 1521.45,1010.91
             1524.80,1017.02 1535.63,1018.48 1542.00,1019.00
             1542.00,1019.00 1542.00,1026.00 1542.00,1026.00
             1542.00,1026.00 1477.00,1026.00 1477.00,1026.00
             1477.00,1026.00 1477.00,1019.00 1477.00,1019.00
             1484.42,1018.40 1495.10,1018.17 1498.26,1010.00
             1499.13,1007.75 1499.00,1004.43 1499.00,1002.00
             1499.00,1002.00 1499.00,895.00 1499.00,895.00
             1488.62,895.00 1478.03,893.16 1470.04,901.04
             1465.98,905.04 1462.85,909.96 1460.26,915.00
             1459.21,917.04 1456.86,922.85 1455.30,924.01
             1453.72,925.18 1450.90,924.98 1449.00,925.00
             1449.00,925.00 1449.00,887.00 1449.00,887.00 Z
           M 1580.00,887.00
           C 1580.00,887.00 1687.00,887.00 1687.00,887.00
             1687.00,887.00 1687.00,921.00 1687.00,921.00
             1677.53,920.88 1680.29,919.26 1674.30,910.00
             1671.53,905.72 1667.40,900.64 1663.00,898.01
             1659.04,895.63 1653.54,895.06 1649.00,895.00
             1649.00,895.00 1620.00,895.00 1620.00,895.00
             1620.00,895.00 1620.00,950.00 1620.00,950.00
             1628.58,950.00 1642.99,951.50 1649.83,946.20
             1653.21,943.57 1655.27,939.99 1656.64,936.00
             1657.37,933.87 1658.08,929.31 1659.73,927.99
             1661.21,926.82 1664.18,927.02 1666.00,927.00
             1666.00,927.00 1666.00,982.00 1666.00,982.00
             1666.00,982.00 1659.00,982.00 1659.00,982.00
             1658.26,978.34 1657.16,973.41 1655.73,970.00
             1649.40,954.86 1633.39,958.00 1620.00,958.00
             1620.00,958.00 1620.00,996.00 1620.00,996.00
             1620.06,1000.42 1620.76,1009.45 1623.51,1012.87
             1627.00,1017.21 1633.80,1017.94 1639.00,1018.00
             1647.85,1018.10 1664.42,1018.88 1671.96,1014.59
             1679.14,1010.50 1687.73,993.01 1690.00,985.00
             1690.00,985.00 1698.00,985.00 1698.00,985.00
             1698.00,985.00 1696.83,1000.00 1696.83,1000.00
             1696.83,1000.00 1695.00,1026.00 1695.00,1026.00
             1695.00,1026.00 1580.00,1026.00 1580.00,1026.00
             1580.00,1026.00 1580.00,1019.00 1580.00,1019.00
             1592.74,1017.97 1599.82,1016.79 1600.00,1002.00
             1600.00,1002.00 1600.00,914.00 1600.00,914.00
             1600.00,910.82 1600.09,907.01 1598.97,904.00
             1596.09,896.27 1587.04,895.32 1580.00,894.00
             1580.00,894.00 1580.00,887.00 1580.00,887.00 Z
           M 1705.00,887.00
           C 1705.00,887.00 1737.00,887.00 1737.00,887.00
             1737.00,887.00 1744.54,887.99 1744.54,887.99
             1744.54,887.99 1751.37,896.00 1751.37,896.00
             1751.37,896.00 1763.15,912.00 1763.15,912.00
             1763.15,912.00 1822.00,992.00 1822.00,992.00
             1822.00,992.00 1822.00,931.00 1822.00,931.00
             1822.00,923.12 1822.91,909.60 1818.30,903.04
             1813.98,896.90 1804.92,895.30 1798.00,894.00
             1798.00,894.00 1798.00,887.00 1798.00,887.00
             1798.00,887.00 1854.00,887.00 1854.00,887.00
             1854.00,887.00 1854.00,894.00 1854.00,894.00
             1846.68,895.38 1838.18,896.56 1834.57,904.00
             1830.92,911.54 1832.00,933.78 1832.00,943.00
             1832.00,943.00 1832.00,1027.00 1832.00,1027.00
             1832.00,1027.00 1823.17,1025.98 1823.17,1025.98
             1823.17,1025.98 1815.58,1017.00 1815.58,1017.00
             1815.58,1017.00 1802.15,999.00 1802.15,999.00
             1802.15,999.00 1739.00,914.00 1739.00,914.00
             1739.00,914.00 1739.00,986.00 1739.00,986.00
             1739.07,992.01 1740.31,1005.14 1743.70,1009.96
             1747.94,1015.99 1757.16,1017.62 1764.00,1019.00
             1764.00,1019.00 1764.00,1026.00 1764.00,1026.00
             1764.00,1026.00 1707.00,1026.00 1707.00,1026.00
             1707.00,1026.00 1707.00,1019.00 1707.00,1019.00
             1714.60,1017.57 1722.69,1016.33 1726.91,1009.00
             1730.80,1002.25 1730.00,981.40 1730.00,973.00
             1730.00,973.00 1730.00,929.00 1730.00,929.00
             1730.00,920.99 1730.63,912.06 1725.87,905.09
             1721.27,898.37 1712.60,895.53 1705.00,894.00
             1705.00,894.00 1705.00,887.00 1705.00,887.00 Z
           M 1255.00,916.00
           C 1255.00,916.00 1245.95,937.00 1245.95,937.00
             1245.95,937.00 1234.00,969.00 1234.00,969.00
             1234.00,969.00 1275.00,969.00 1275.00,969.00
             1275.00,969.00 1255.00,916.00 1255.00,916.00 Z
           M 1882.00,1002.73
           C 1886.01,1002.89 1888.75,1003.27 1891.79,1006.23
             1900.20,1014.41 1894.82,1028.53 1883.00,1028.86
             1867.55,1029.30 1862.62,1004.96 1882.00,1002.73 Z" />
</svg>
